<svg width="65" height="33" viewBox="0 0 65 33" fill="none" xmlns="http://www.w3.org/2000/svg">
<path d="M9.24628 16.4612C9.24628 19.0156 7.17643 21.0863 4.62314 21.0863C2.06985 21.0863 0 19.0156 0 16.4612C0 13.9069 2.06985 11.8362 4.62314 11.8362C7.17643 11.8362 9.24628 13.9069 9.24628 16.4612Z" fill="#3FA9F5"/>
<path d="M65 16.4612C65 19.0156 62.9301 21.0863 60.3769 21.0863C57.8236 21.0863 55.7537 19.0156 55.7537 16.4612C55.7537 13.9069 57.8236 11.8362 60.3769 11.8362C62.9301 11.8362 65 13.9069 65 16.4612Z" fill="#3FA9F5"/>
<path d="M18.5616 0.00154793C11.551 -0.0528643 5.84218 8.32208 3.86412 12.5163L8.55626 15.237C12.6412 7.29279 16.9285 5.44278 18.5616 5.51079C23.4745 5.72844 28.6129 14.4888 30.5679 18.8418C36.4745 30.6492 43.7933 33.193 46.7144 32.9889C53.9459 32.9345 59.4338 24.5324 61.2739 20.3381L56.6507 17.6855C52.621 25.3032 48.3475 27.389 46.7144 27.4797C41.9671 28.4591 35.4441 17.0507 32.776 11.2241C27.6423 2.08282 21.1607 -0.0664667 18.5616 0.00154793Z" fill="#3FA9F5"/>
</svg>
