<svg width="16" height="16" viewBox="0 0 16 16" fill="none" xmlns="http://www.w3.org/2000/svg">
<path fill-rule="evenodd" clip-rule="evenodd" d="M3 0C1.34315 0 0 1.34315 0 3V13C0 14.6569 1.34315 16 3 16H13C14.6569 16 16 14.6569 16 13V3C16 1.34315 14.6569 0 13 0H3ZM2.77778 1.77778C2.22549 1.77778 1.77778 2.22549 1.77778 2.77778V13.2222C1.77778 13.7745 2.22549 14.2222 2.77778 14.2222H13.2222C13.7745 14.2222 14.2222 13.7745 14.2222 13.2222V2.77778C14.2222 2.22549 13.7745 1.77778 13.2222 1.77778H2.77778Z" fill="#8F8F8F"/>
</svg>
